<?xml version="1.0" encoding="utf-8"?>
<!-- Generator: Adobe Illustrator 22.0.0, SVG Export Plug-In . SVG Version: 6.00 Build 0)  -->
<svg version="1.1" id="Camada_1" xmlns="http://www.w3.org/2000/svg" xmlns:xlink="http://www.w3.org/1999/xlink" x="0px" y="0px"
	 viewBox="0 0 404 404" style="enable-background:new 0 0 404 404;" xml:space="preserve">
<style type="text/css">
	.st0{fill:#FFFFFF;}
	.st1{fill:#295FCC;}
	.st2{fill:#12479B;}
	.st3{fill:#EEF6FF;}
	.st4{fill:#D9EAFC;}
	.st5{fill:#294682;}
	.st6{fill:#69CDFF;}
	.st7{fill:#52BBEF;}
	.st8{fill:#C9C9C9;}
	.st9{fill:#E2E2E2;}
</style>
<g>
	<g>
		<path class="st0" d="M86.3,239.4H27.2l-5.6-23.9L84.9,140h34.2v74h15.5v25.3h-15.5v23.7H86.3V239.4z M86.3,214.2v-35.1l-29.2,35.1
			H86.3z"/>
		<path class="st0" d="M146.7,202.3V202c0-34.6,22-63.5,56.7-63.5c34.7,0,56.4,28.6,56.4,63.2v0.3c0,34.6-21.8,63.5-56.7,63.5
			C168.2,265.5,146.7,236.9,146.7,202.3z M225.8,202.3V202c0-19.4-9.3-33.5-22.7-33.5c-13.4,0-22.3,13.6-22.3,33.2v0.3
			c0,19.6,9.1,33.5,22.7,33.5C217.1,235.5,225.8,221.7,225.8,202.3z"/>
		<path class="st0" d="M334.1,239.4h-59.2l-5.6-23.9l63.4-75.4h34.2v74h15.5v25.3h-15.5v23.7h-32.8V239.4z M334.1,214.2v-35.1
			l-29.2,35.1H334.1z"/>
	</g>
	<g>
		<path class="st1" d="M224.5,196.3c1.8,1.1,3.6,2.1,5.3,3.3c0-7.1-4.6-14.6-12.4-19.1c-4.1-2.3-8.6-3.6-13.1-3.5
			c-0.4,0-0.8,0.2-1,0.6c-0.1,0.1-0.1,0.3-0.1,0.4c-0.4,3.2-1.4,6.2-3,9C208.3,188.7,216.7,191.9,224.5,196.3z"/>
		<path class="st2" d="M215.9,183.1c6.4,3.7,10.7,9.4,12,15.4c0.6,0.4,1.2,0.8,1.8,1.2c0-7.1-4.6-14.6-12.4-19.1
			c-4.1-2.3-8.6-3.6-13.1-3.5c-0.4,0-0.8,0.2-1,0.6c-0.1,0.1-0.1,0.3-0.1,0.4c-0.1,0.5-0.2,1-0.2,1.6
			C207.3,179.6,211.9,180.8,215.9,183.1z"/>
		<path class="st1" d="M194.7,190.8l-5.2-2.9c-0.6-0.3-1.4-0.1-1.7,0.5l-8.5,14.9c-0.3,0.6-0.1,1.4,0.5,1.7l5.2,2.9L194.7,190.8z"/>
		<path class="st2" d="M187.4,191.7l5.2,2.9l2.1-3.8l-5.2-2.9c-0.6-0.3-1.4-0.1-1.7,0.5l-2.1,3.8C186,191.6,186.7,191.4,187.4,191.7
			z"/>
		<path class="st3" d="M230.5,240.5l15.5-27.2c-5.8-6.6-13.1-12.5-21.4-17.2c-8.6-4.9-17.9-8.3-26.8-9.8c-0.5-0.1-1,0.1-1.2,0.6
			l-14.1,24.7c-0.2,0.4-0.2,0.9,0.1,1.3c5.9,6.9,13.5,13.1,22.2,18C213.1,235.7,222,238.9,230.5,240.5z"/>
		<path class="st4" d="M196,189.5c8.9,1.5,18.2,4.9,26.8,9.8c8.3,4.7,15.6,10.6,21.4,17.2l1.8-3.2c-5.8-6.6-13.1-12.5-21.4-17.2
			c-8.6-4.9-17.9-8.3-26.8-9.8c-0.5-0.1-1,0.1-1.2,0.6l-1.8,3.2C195,189.7,195.5,189.4,196,189.5z"/>
		<path class="st1" d="M242,220.5l-3.7-2.1c-0.6-0.3-1.4-0.1-1.7,0.5l-6.1,10.7c-0.3,0.6-0.1,1.4,0.5,1.7l3.7,2.1L242,220.5z"/>
		<path class="st5" d="M236.8,220.9l3.7,2.1l1.4-2.5l-3.7-2.1c-0.6-0.3-1.4-0.1-1.7,0.5l-1.4,2.5
			C235.4,220.8,236.2,220.6,236.8,220.9z"/>
		<path class="st1" d="M258.5,238.4c0.1-0.2,0.2-0.5,0.1-0.8c-1.2-7.3-4.9-15-10.8-22.2c-0.6-0.8-1.3-1.5-1.9-2.3l-15.5,27.4
			c1,0.2,2,0.4,3,0.5c9.2,1.3,17.8,0.6,24.7-2.1C258.2,238.8,258.4,238.6,258.5,238.4z"/>
		<path class="st2" d="M256.6,239.4c0.5-0.2,0.9-0.3,1.4-0.5c0.2-0.1,0.5-0.3,0.6-0.5c0.1-0.2,0.2-0.5,0.1-0.8
			c-1.2-7.3-4.9-15-10.8-22.2c-0.6-0.8-1.3-1.5-1.9-2.3l-1.8,3.2c0.7,0.7,1.3,1.5,1.9,2.3C251.5,225.4,255.1,232.5,256.6,239.4z"/>
		<ellipse class="st1" cx="218" cy="215.4" rx="13.1" ry="13.1"/>
		<ellipse class="st6" cx="218" cy="215.4" rx="8.4" ry="8.4"/>
		<path class="st7" d="M220.7,210.8c-3.6-2-8-1.2-10.6,1.9c0.2-0.5,0.4-0.9,0.6-1.4c2.3-4,7.4-5.5,11.5-3.2c4,2.3,5.5,7.4,3.2,11.5
			c-0.3,0.5-0.6,0.9-0.9,1.3C225.8,217.1,224.2,212.8,220.7,210.8z"/>
		<g>
			<circle class="st8" cx="166.3" cy="197.3" r="5.1"/>
			<circle class="st8" cx="165.9" cy="187.5" r="8.1"/>
			<circle class="st8" cx="120.3" cy="160.3" r="4.5"/>
			<circle class="st8" cx="121.3" cy="166.1" r="2.7"/>
			<circle class="st8" cx="118.4" cy="165.1" r="2.7"/>
			<circle class="st8" cx="123.2" cy="156.4" r="2.7"/>
			<circle class="st8" cx="127.1" cy="158.3" r="2.7"/>
			<circle class="st8" cx="175.7" cy="179.3" r="6"/>
			<circle class="st9" cx="147.1" cy="168.7" r="8.1"/>
			<circle class="st9" cx="139.4" cy="182.3" r="6.4"/>
			<circle class="st9" cx="157.4" cy="166.1" r="6.4"/>
			<circle class="st9" cx="145.4" cy="187.5" r="4.7"/>
			<circle class="st9" cx="138.6" cy="171.2" r="6.4"/>
		</g>
		<polygon points="246.8,241.5 241.2,237.9 240.7,237.6 240.9,237.1 242.1,234.9 242.3,235.6 237.8,233.6 237.5,233.4 237.7,233.1 
			240.8,228.4 240.9,228.6 237.3,227.7 241,228.4 241.2,228.4 241.1,228.6 238.3,233.5 238.1,233 242.7,234.7 243.2,234.9 
			243,235.4 242,237.6 241.8,236.9 247.6,239.9 250.2,241 		"/>
		<path d="M206,197.3l-3.9-0.9l1.5,2.7h-2.1l0.6,1.8c0,0-0.9,2.4-0.6,2.1s2.1,0.9,2.1,0s2.4,0.9,2.4,0.9l1.5-1.5
			c0,0-2.7-2.1-1.2-2.4c1.5-0.3,5.7-1.2,4.2-1.5S206,197.3,206,197.3z"/>
		<path class="st1" d="M204.9,230.7c-7.8-4.4-14.8-10-20.4-16.1c-0.5,0.8-1,1.6-1.6,2.4h0c0,0,1.5,0.9,2.2,0.9
			c0.7,0,1.5,0.9,1.5,1.7c0,0.9-2.2,0.9-2.2,0.9l0.7,3.4l-2.2,1.7V223l-3.3-2.3c-0.4,0.4-0.9,0.8-1.3,1.1c-0.1,0.1-0.2,0.2-0.3,0.3
			c-0.2,0.4-0.2,0.8,0,1.1c2.2,3.8,5.6,7.1,9.7,9.4c7.8,4.5,16.7,4.6,22.8,0.9C208.6,232.7,206.8,231.8,204.9,230.7z"/>
	</g>
</g>
</svg>
