<?xml version="1.0" encoding="utf-8"?>
<!-- Generator: Adobe Illustrator 22.0.0, SVG Export Plug-In . SVG Version: 6.00 Build 0)  -->
<svg version="1.1" id="Capa_1" xmlns="http://www.w3.org/2000/svg" xmlns:xlink="http://www.w3.org/1999/xlink" x="0px" y="0px"
	 viewBox="0 0 512 512" style="enable-background:new 0 0 512 512;" xml:space="preserve">
<style type="text/css">
	.st0{fill:#061235;}
	.st1{fill:#FFAF10;}
	.st2{fill:#EADF0A;}
	.st3{fill:#FF0000;}
	.st4{fill:#295FCC;}
	.st5{fill:#12479B;}
	.st6{fill:#EEF6FF;}
	.st7{fill:#D9EAFC;}
	.st8{fill:#294682;}
	.st9{fill:#69CDFF;}
	.st10{fill:#52BBEF;}
	.st11{fill:#FFFFFF;}
</style>
<g>
	<circle class="st0" cx="256" cy="256" r="240"/>
	<g>
		<path class="st1" d="M162.9,301.7c0,0-36.1,5.2-46.4,70.3c0,0,59.8-3.4,84.7-41.7S162.9,301.7,162.9,301.7z"/>
		<path class="st2" d="M175.6,312.8c0,0-23.2,3.5-36.9,34.9c0,0,44.1-17.1,47.5-27.4C189.5,310,175.6,312.8,175.6,312.8z"/>
		<g>
			<path class="st3" d="M163.1,300.4c6.3,6.1,9.1,15,7.3,23.6c0,0.2,0,0.4,0.2,0.6c0,0,0,0,0,0c0.1,0.1,0.3,0.2,0.5,0.2
				c10.8-0.8,21.4,3,29.2,10.5c2.6,2.6,4.8,5.4,6.5,8.5l13.2-31.5l-31.6-30.6l-31.4,14.4C159.3,297.2,161.3,298.7,163.1,300.4z"/>
			<path class="st3" d="M192.7,285.7l-4.1-4l-31.4,14.4c1.8,0.9,3.5,2.1,5.1,3.5L192.7,285.7z"/>
			<g>
				<path class="st2" d="M215.6,308l-7.6-7.3l-6.4,8.6c-1.7,2.3-1.3,5.6,1,7.3c2.3,1.7,5.6,1.3,7.3-1L215.6,308z"/>
				<path class="st2" d="M193.1,286.1l-17.2,13.8c-2.3,1.8-2.6,5.1-0.8,7.3c0.1,0.2,0.3,0.3,0.4,0.5c1.9,1.8,4.8,2,6.9,0.3
					l18.2-14.6L193.1,286.1L193.1,286.1z"/>
			</g>
			<path class="st4" d="M233,190.6c4-4.1,8-8,12.2-11.7c-18.6-4.9-41.5,2.2-58.4,19.6c-8.9,9.2-15.2,20.2-18,31.9
				c-0.3,1.1,0.1,2.2,0.8,2.9c0.3,0.3,0.6,0.5,1,0.6c8,3.2,15.2,7.9,21.6,14C202.1,227.7,216.1,208,233,190.6z"/>
			<path class="st5" d="M192.5,204c14-14.4,32-21.7,48.4-21.1c1.4-1.4,2.9-2.7,4.4-4c-18.6-4.9-41.5,2.2-58.4,19.6
				c-8.9,9.2-15.2,20.2-18,31.9c-0.3,1.1,0.1,2.2,0.8,2.9c0.3,0.3,0.6,0.5,1,0.6c1.3,0.5,2.6,1.1,3.9,1.7
				C177.4,224.1,183.6,213.1,192.5,204z"/>
			<g>
				<path class="st4" d="M321.2,252.5c-3.6,4.3-7.4,8.5-11.4,12.6c-16.9,17.4-36.2,32-56,42.5c6.3,6.2,11.2,13.3,14.6,21.1
					c0.2,0.4,0.4,0.7,0.7,1c0.8,0.7,1.9,1.1,3,0.8c11.5-3.2,22.4-9.8,31.3-19C320.4,294,326.7,270.9,321.2,252.5z"/>
				<path class="st4" d="M198.3,265l-11.2,11.5c-1.3,1.4-1.3,3.6,0.1,4.9l33.3,32.3c1.4,1.3,3.6,1.3,4.9-0.1l11.2-11.5L198.3,265z"
					/>
			</g>
			<path class="st5" d="M195.7,284.7l11.2-11.5l-8.5-8.2l-11.2,11.5c-1.3,1.4-1.3,3.6,0.1,4.9l8.5,8.2
				C194.4,288.3,194.3,286.1,195.7,284.7z"/>
			<path class="st6" d="M352.9,204.7l-60.8-59c-21.2,10.7-41.6,25.9-59.6,44.4c-18.7,19.3-33.8,41.3-43.8,63.7
				c-0.5,1.2-0.3,2.6,0.7,3.5l55.2,53.6c0.9,0.9,2.3,1.1,3.5,0.6c22.1-10.7,43.6-26.5,62.3-45.8
				C328.3,247.1,342.9,226.1,352.9,204.7z"/>
			<path class="st7" d="M195.8,260.6c10-22.4,25.2-44.4,43.8-63.7c18-18.5,38.4-33.8,59.6-44.4l-7.1-6.9
				c-21.2,10.7-41.6,25.9-59.6,44.4c-18.7,19.3-33.8,41.3-43.8,63.7c-0.5,1.2-0.3,2.6,0.7,3.5l7.1,6.9
				C195.5,263.2,195.2,261.8,195.8,260.6z"/>
			<path class="st4" d="M308.1,161.2l-8,8.3c-1.3,1.4-1.3,3.6,0.1,4.9l23.8,23.1c1.4,1.3,3.6,1.3,4.9-0.1l8-8.3L308.1,161.2z"/>
			<path class="st8" d="M305.7,175l8-8.3l-5.7-5.5l-8,8.3c-1.3,1.4-1.3,3.6,0.1,4.9l5.7,5.5C304.4,178.6,304.4,176.4,305.7,175z"/>
			<path class="st4" d="M366.3,130c-0.5-0.5-1.1-0.8-1.9-0.9c-19.9-1.8-42.6,2.8-65.6,13.3c-2.4,1.1-4.9,2.3-7.3,3.5l61.2,59.3
				c1.2-2.5,2.3-4.9,3.3-7.4c9.8-23.3,13.7-46.2,11.3-66C367.1,131.2,366.8,130.5,366.3,130z"/>
			<path class="st5" d="M367.6,135.8c-0.1-1.3-0.2-2.6-0.4-3.9c-0.1-0.7-0.4-1.4-0.9-1.8s-1.1-0.8-1.9-0.9
				c-19.9-1.8-42.6,2.8-65.6,13.3c-2.4,1.1-4.9,2.3-7.3,3.5l7.1,6.9c2.4-1.2,4.9-2.4,7.3-3.5C327.4,139.5,348.6,134.9,367.6,135.8z"
				/>
			
				<ellipse transform="matrix(0.7071 -0.7071 0.7071 0.7071 -74.2848 261.5741)" class="st4" cx="278.6" cy="220.5" rx="35.5" ry="35.5"/>
			
				<ellipse transform="matrix(0.8021 -0.5972 0.5972 0.8021 -76.5184 210.0064)" class="st9" cx="278.6" cy="220.5" rx="22.8" ry="22.8"/>
			<path class="st10" d="M268.2,210.4c-7.8,8-8.5,20.3-2.2,29c-1.1-0.8-2.2-1.6-3.3-2.6c-9-8.8-9.3-23.2-0.5-32.2
				c8.8-9,23.2-9.3,32.2-0.5c1,1,1.9,2.1,2.7,3.2C288.2,201.3,276,202.4,268.2,210.4z"/>
		</g>
	</g>
	<g>
		<path class="st11" d="M351.8,91.7c-0.5,0-1-0.3-1.1-0.8c-2.4-5.9-4.2-7.7-10.2-10.2c-0.5-0.2-0.8-0.6-0.8-1.1c0-0.5,0.3-1,0.8-1.1
			c5.9-2.4,7.7-4.2,10.2-10.2c0.2-0.5,0.6-0.8,1.1-0.8s1,0.3,1.1,0.8c2.4,5.9,4.2,7.7,10.2,10.2c0.5,0.2,0.8,0.6,0.8,1.1
			c0,0.5-0.3,1-0.8,1.1c-5.9,2.4-7.7,4.2-10.2,10.2C352.8,91.4,352.3,91.7,351.8,91.7L351.8,91.7z"/>
		<path class="st7" d="M353.1,88.4c-2.4-5.9-4.2-7.7-10.2-10.2c-0.3-0.1-0.5-0.3-0.6-0.6c-0.6,0.3-1.2,0.5-1.8,0.8
			c-0.5,0.2-0.8,0.6-0.8,1.1c0,0.5,0.3,1,0.8,1.1c5.9,2.4,7.7,4.2,10.2,10.2c0.2,0.5,0.6,0.8,1.1,0.8c0.5,0,1-0.3,1.1-0.8
			c0.3-0.7,0.5-1.3,0.8-1.8C353.5,89,353.3,88.7,353.1,88.4z"/>
	</g>
	<g>
		<path class="st11" d="M336.8,426.9c-0.7,0-1.4-0.4-1.7-1.1c-3.6-8.8-6.3-11.4-15.1-15.1c-0.7-0.3-1.1-1-1.1-1.7
			c0-0.7,0.4-1.4,1.1-1.7c8.8-3.6,11.4-6.3,15.1-15.1c0.3-0.7,1-1.1,1.7-1.1c0.7,0,1.4,0.4,1.7,1.1c3.6,8.8,6.3,11.4,15.1,15.1
			c0.7,0.3,1.1,1,1.1,1.7c0,0.7-0.4,1.4-1.1,1.7c-8.8,3.6-11.4,6.3-15.1,15.1C338.3,426.4,337.6,426.9,336.8,426.9L336.8,426.9z"/>
		<path class="st7" d="M338.8,422c-3.6-8.8-6.3-11.4-15.1-15.1c-0.4-0.2-0.8-0.5-1-0.9c-0.8,0.4-1.7,0.8-2.7,1.2
			c-0.7,0.3-1.1,1-1.1,1.7c0,0.7,0.4,1.4,1.1,1.7c8.8,3.6,11.4,6.3,15.1,15.1c0.3,0.7,1,1.1,1.7,1.1c0.7,0,1.4-0.4,1.7-1.1
			c0.4-1,0.8-1.9,1.2-2.7C339.3,422.8,339,422.5,338.8,422z"/>
	</g>
	<g>
		<path class="st11" d="M76.3,263.5c-0.5,0-1-0.3-1.2-0.8c-2.6-6.4-4.6-8.3-11-11c-0.5-0.2-0.8-0.7-0.8-1.2c0-0.5,0.3-1,0.8-1.2
			c6.4-2.6,8.3-4.6,11-11c0.2-0.5,0.7-0.8,1.2-0.8s1,0.3,1.2,0.8c2.6,6.4,4.6,8.3,11,11c0.5,0.2,0.8,0.7,0.8,1.2
			c0,0.5-0.3,1-0.8,1.2c-6.4,2.6-8.3,4.6-11,11C77.3,263.1,76.8,263.5,76.3,263.5L76.3,263.5z"/>
		<path class="st7" d="M77.7,260c-2.6-6.4-4.6-8.3-11-11c-0.3-0.1-0.6-0.4-0.7-0.7c-0.6,0.3-1.3,0.6-2,0.9c-0.5,0.2-0.8,0.7-0.8,1.2
			c0,0.5,0.3,1,0.8,1.2c6.4,2.6,8.3,4.6,11,11c0.2,0.5,0.7,0.8,1.2,0.8s1-0.3,1.2-0.8c0.3-0.7,0.6-1.4,0.9-2
			C78.1,260.5,77.9,260.3,77.7,260z"/>
	</g>
	<g>
		<path class="st11" d="M204,85c-0.4,0-0.7-0.2-0.9-0.6c-1.9-4.5-3.3-5.9-7.8-7.8c-0.4-0.1-0.6-0.5-0.6-0.9c0-0.4,0.2-0.7,0.6-0.9
			c4.5-1.9,5.9-3.3,7.8-7.8c0.1-0.4,0.5-0.6,0.9-0.6c0.4,0,0.7,0.2,0.9,0.6c1.9,4.5,3.3,5.9,7.8,7.8c0.4,0.1,0.6,0.5,0.6,0.9
			c0,0.4-0.2,0.7-0.6,0.9c-4.5,1.9-5.9,3.3-7.8,7.8C204.7,84.8,204.4,85,204,85L204,85z"/>
		<path class="st7" d="M205,82.5c-1.9-4.5-3.3-5.9-7.8-7.8c-0.2-0.1-0.4-0.3-0.5-0.5c-0.4,0.2-0.9,0.4-1.4,0.6
			c-0.4,0.1-0.6,0.5-0.6,0.9c0,0.4,0.2,0.7,0.6,0.9c4.5,1.9,5.9,3.3,7.8,7.8c0.1,0.4,0.5,0.6,0.9,0.6s0.7-0.2,0.9-0.6
			c0.2-0.5,0.4-1,0.6-1.4C205.3,82.9,205.1,82.7,205,82.5z"/>
	</g>
	<g>
		<path class="st11" d="M232.9,455.1c-0.4,0-0.7-0.2-0.9-0.6c-1.9-4.5-3.3-5.9-7.8-7.8c-0.4-0.1-0.6-0.5-0.6-0.9
			c0-0.4,0.2-0.7,0.6-0.9c4.5-1.9,5.9-3.3,7.8-7.8c0.1-0.4,0.5-0.6,0.9-0.6c0.4,0,0.7,0.2,0.9,0.6c1.9,4.5,3.3,5.9,7.8,7.8
			c0.4,0.1,0.6,0.5,0.6,0.9c0,0.4-0.2,0.7-0.6,0.9c-4.5,1.9-5.9,3.3-7.8,7.8C233.6,454.9,233.3,455.1,232.9,455.1L232.9,455.1z"/>
		<path class="st7" d="M233.9,452.6c-1.9-4.5-3.3-5.9-7.8-7.8c-0.2-0.1-0.4-0.3-0.5-0.5c-0.4,0.2-0.9,0.4-1.4,0.6
			c-0.4,0.1-0.6,0.5-0.6,0.9c0,0.4,0.2,0.7,0.6,0.9c4.5,1.9,5.9,3.3,7.8,7.8c0.1,0.4,0.5,0.6,0.9,0.6c0.4,0,0.7-0.2,0.9-0.6
			c0.2-0.5,0.4-1,0.6-1.4C234.2,453,234,452.8,233.9,452.6z"/>
	</g>
	<g>
		<path class="st11" d="M442.7,233.5c-0.4,0-0.7-0.2-0.9-0.6c-1.9-4.5-3.3-5.9-7.8-7.8c-0.4-0.1-0.6-0.5-0.6-0.9
			c0-0.4,0.2-0.7,0.6-0.9c4.5-1.9,5.9-3.3,7.8-7.8c0.1-0.4,0.5-0.6,0.9-0.6c0.4,0,0.7,0.2,0.9,0.6c1.9,4.5,3.3,5.9,7.8,7.8
			c0.4,0.1,0.6,0.5,0.6,0.9c0,0.4-0.2,0.7-0.6,0.9c-4.5,1.9-5.9,3.3-7.8,7.8C443.4,233.3,443.1,233.5,442.7,233.5L442.7,233.5z"/>
		<path class="st7" d="M443.7,231c-1.9-4.5-3.3-5.9-7.8-7.8c-0.2-0.1-0.4-0.3-0.5-0.5c-0.4,0.2-0.9,0.4-1.4,0.6
			c-0.4,0.1-0.6,0.5-0.6,0.9c0,0.4,0.2,0.7,0.6,0.9c4.5,1.9,5.9,3.3,7.8,7.8c0.1,0.4,0.5,0.6,0.9,0.6c0.4,0,0.7-0.2,0.9-0.6
			c0.2-0.5,0.4-1,0.6-1.4C444,231.4,443.8,231.2,443.7,231z"/>
	</g>
	<g>
		<path class="st11" d="M411.5,338.9c-0.4,0-0.7-0.2-0.9-0.6c-1.9-4.5-3.3-5.9-7.8-7.8c-0.4-0.1-0.6-0.5-0.6-0.9
			c0-0.4,0.2-0.7,0.6-0.9c4.5-1.9,5.9-3.3,7.8-7.8c0.1-0.4,0.5-0.6,0.9-0.6c0.4,0,0.7,0.2,0.9,0.6c1.9,4.5,3.3,5.9,7.8,7.8
			c0.4,0.1,0.6,0.5,0.6,0.9c0,0.4-0.2,0.7-0.6,0.9c-4.5,1.9-5.9,3.3-7.8,7.8C412.2,338.7,411.9,338.9,411.5,338.9L411.5,338.9z"/>
		<path class="st7" d="M412.5,336.4c-1.9-4.5-3.3-5.9-7.8-7.8c-0.2-0.1-0.4-0.3-0.5-0.5c-0.4,0.2-0.9,0.4-1.4,0.6
			c-0.4,0.1-0.6,0.5-0.6,0.9c0,0.4,0.2,0.7,0.6,0.9c4.5,1.9,5.9,3.3,7.8,7.8c0.1,0.4,0.5,0.6,0.9,0.6c0.4,0,0.7-0.2,0.9-0.6
			c0.2-0.5,0.4-1,0.6-1.4C412.8,336.8,412.6,336.6,412.5,336.4z"/>
	</g>
	<g>
		<path class="st11" d="M147.8,172.3c-0.3,0-0.5-0.2-0.7-0.4c-1.4-3.4-2.4-4.4-5.8-5.8c-0.3-0.1-0.4-0.4-0.4-0.7
			c0-0.3,0.2-0.5,0.4-0.7c3.4-1.4,4.4-2.4,5.8-5.8c0.1-0.3,0.4-0.4,0.7-0.4s0.5,0.2,0.7,0.4c1.4,3.4,2.4,4.4,5.8,5.8
			c0.3,0.1,0.4,0.4,0.4,0.7c0,0.3-0.2,0.5-0.4,0.7c-3.4,1.4-4.4,2.4-5.8,5.8C148.3,172.1,148.1,172.3,147.8,172.3L147.8,172.3z"/>
		<path class="st7" d="M148.5,170.5c-1.4-3.4-2.4-4.4-5.8-5.8c-0.2-0.1-0.3-0.2-0.4-0.4c-0.3,0.2-0.7,0.3-1.1,0.5
			c-0.3,0.1-0.4,0.4-0.4,0.7c0,0.3,0.2,0.5,0.4,0.7c3.4,1.4,4.4,2.4,5.8,5.8c0.1,0.3,0.4,0.4,0.7,0.4s0.5-0.2,0.7-0.4
			c0.2-0.4,0.3-0.7,0.5-1.1C148.7,170.8,148.6,170.6,148.5,170.5z"/>
	</g>
</g>
</svg>
